<svg width="236" height="237" viewBox="0 0 236 237" fill="none" xmlns="http://www.w3.org/2000/svg">
<path d="M97.2223 71.4649C97.2223 83.5214 87.3916 93.2949 75.2632 93.2949C63.1366 93.2949 53.3059 83.5214 53.3059 71.4649C53.3059 59.4103 63.1366 49.6368 75.2632 49.6368C87.3916 49.6368 97.2223 59.4103 97.2223 71.4649Z" fill="#FF2E40"/>
<path d="M127.776 8.72308C127.776 13.5402 123.916 17.4443 119.157 17.4443C114.397 17.4443 110.538 13.54 110.538 8.72308C110.538 3.90617 114.397 0 119.157 0C123.916 0 127.776 3.90613 127.776 8.72308Z" fill="#FF5C6A"/>
<path d="M236 117.075C236 121.962 232.037 125.925 227.15 125.925C222.261 125.925 218.3 121.962 218.3 117.075C218.3 112.187 222.262 108.225 227.15 108.225C232.037 108.225 236 112.187 236 117.075Z" fill="#FF5C6A"/>
<path d="M19.5469 118C19.5469 123.399 15.1719 127.774 9.77344 127.774C4.37689 127.774 0 123.399 0 118C0 112.602 4.37675 108.227 9.77344 108.227C15.1718 108.227 19.5469 112.602 19.5469 118Z" fill="#FF5C6A"/>
<path d="M125.467 227.384C125.467 232.144 121.607 236.003 116.848 236.003C112.089 236.003 108.229 232.143 108.229 227.384C108.229 222.622 112.089 218.765 116.848 218.765C121.607 218.765 125.467 222.622 125.467 227.384Z" fill="#FF5C6A"/>
<path d="M144.294 227.842C144.294 231.326 141.468 234.151 137.985 234.151C134.499 234.151 131.674 231.326 131.674 227.842C131.674 224.356 134.499 221.531 137.985 221.531C141.469 221.531 144.294 224.356 144.294 227.842Z" fill="#FF2E40"/>
<path d="M165.69 220.38C165.69 224.701 162.244 228.203 157.994 228.203C153.745 228.203 150.298 224.701 150.298 220.38C150.298 216.059 153.744 212.555 157.994 212.555C162.244 212.555 165.69 216.059 165.69 220.38Z" fill="#FF5C6A"/>
<path d="M181.769 212.684C181.769 216.934 178.324 220.38 174.073 220.38C169.823 220.38 166.379 216.934 166.379 212.684C166.379 208.434 169.823 204.988 174.073 204.988C178.324 204.988 181.769 208.434 181.769 212.684Z" fill="#FF5C6A"/>
<path d="M200.394 200.6C200.394 204.411 197.306 207.5 193.495 207.5C189.683 207.5 186.593 204.411 186.593 200.6C186.593 196.789 189.683 193.701 193.495 193.701C197.306 193.701 200.394 196.789 200.394 200.6Z" fill="#FF5C6A"/>
<path d="M232.102 143.73C232.102 148.619 228.138 152.58 223.252 152.58C218.363 152.58 214.402 148.619 214.402 143.73C214.402 138.842 218.363 134.88 223.252 134.88C228.139 134.88 232.102 138.842 232.102 143.73Z" fill="#FF5C6A"/>
<path d="M224.97 165.69C224.97 169.883 221.57 173.283 217.378 173.283C213.183 173.283 209.784 169.883 209.784 165.69C209.784 161.496 213.183 158.097 217.378 158.097C221.57 158.097 224.97 161.496 224.97 165.69Z" fill="#FF5C6A"/>
<path d="M232.102 90.988C232.102 95.1822 228.702 98.5819 224.508 98.5819C220.314 98.5819 216.916 95.1821 216.916 90.988C216.916 86.7956 220.314 83.3959 224.508 83.3959C228.702 83.3959 232.102 86.7956 232.102 90.988Z" fill="#FF5C6A"/>
<path d="M105.252 226.353C105.252 230.547 101.853 233.947 97.6602 233.947C93.466 233.947 90.0663 230.547 90.0663 226.353C90.0663 222.161 93.4661 218.761 97.6602 218.761C101.853 218.761 105.252 222.161 105.252 226.353Z" fill="#FF5C6A"/>
<path d="M83.4206 217.274C83.4206 222.672 79.0456 227.048 73.6471 227.048C68.2487 227.048 63.8737 222.673 63.8737 217.274C63.8737 211.877 68.2486 207.501 73.6471 207.501C79.0455 207.501 83.4206 211.877 83.4206 217.274Z" fill="#FF5C6A"/>
<path d="M31.246 173.153C31.246 177.914 27.3864 181.772 22.6269 181.772C17.8652 181.772 14.0078 177.914 14.0078 173.153C14.0078 168.393 17.8657 164.535 22.6269 164.535C27.3868 164.535 31.246 168.393 31.246 173.153Z" fill="#FF2E40"/>
<path d="M214.173 182.694C214.173 187.64 210.165 191.648 205.219 191.648C200.275 191.648 196.267 187.64 196.267 182.694C196.267 177.75 200.275 173.742 205.219 173.742C210.165 173.742 214.173 177.75 214.173 182.694Z" fill="#FF5C6A"/>
<path d="M105.252 11.5952C105.252 16.4838 101.291 20.4452 96.4023 20.4452C91.5156 20.4452 87.5524 16.4836 87.5524 11.5952C87.5524 6.70849 91.5158 2.74524 96.4023 2.74524C101.291 2.74524 105.252 6.70862 105.252 11.5952Z" fill="#FF5C6A"/>
<path d="M202.446 39.9907C202.446 44.9347 198.485 48.9428 193.596 48.9428C188.71 48.9428 184.746 44.9347 184.746 39.9907C184.746 35.0467 188.71 31.0386 193.596 31.0386C198.485 31.0386 202.446 35.0467 202.446 39.9907Z" fill="#FF5C6A"/>
<path d="M45.0432 192.341C45.0432 196.789 41.4376 200.395 36.9893 200.395C32.541 200.395 28.9337 196.789 28.9337 192.341C28.9337 187.893 32.541 184.286 36.9893 184.286C41.4376 184.286 45.0432 187.893 45.0432 192.341Z" fill="#FF5C6A"/>
<path d="M85.2437 13.6726C85.2437 17.1582 82.4183 19.9834 78.9328 19.9834C75.4489 19.9834 72.6238 17.158 72.6238 13.6726C72.6238 10.1887 75.4492 7.36353 78.9328 7.36353C82.4185 7.36353 85.2437 10.1889 85.2437 13.6726Z" fill="#FF2E40"/>
<path d="M68.6981 26.3196C68.6981 31.2081 64.6899 35.1695 59.7459 35.1695C54.802 35.1695 50.7938 31.2079 50.7938 26.3196C50.7938 21.4329 54.802 17.4696 59.7459 17.4696C64.6899 17.4696 68.6981 21.433 68.6981 26.3196Z" fill="#FF5C6A"/>
<path d="M225.432 71.6985C225.432 76.6424 221.471 80.6506 216.582 80.6506C211.696 80.6506 207.732 76.6424 207.732 71.6985C207.732 66.7526 211.696 62.7445 216.582 62.7445C221.471 62.7445 225.432 66.7526 225.432 71.6985Z" fill="#FF5C6A"/>
<path d="M156.043 12.7491C156.043 17.6377 152.082 21.5991 147.193 21.5991C142.307 21.5991 138.344 17.6375 138.344 12.7491C138.344 7.86242 142.307 3.89917 147.193 3.89917C152.082 3.89917 156.043 7.86255 156.043 12.7491Z" fill="#FF5C6A"/>
<path d="M20.9073 89.9619C20.9073 94.7217 17.0495 98.581 12.2882 98.581C7.52839 98.581 3.66913 94.7213 3.66913 89.9619C3.66913 85.2002 7.52876 81.3428 12.2882 81.3428C17.0499 81.3428 20.9073 85.2006 20.9073 89.9619Z" fill="#FF5C6A"/>
<path d="M172.333 17.9312C172.333 21.3596 169.507 24.1404 166.022 24.1404C162.536 24.1404 159.711 21.3598 159.711 17.9312C159.711 14.5027 162.536 11.7239 166.022 11.7239C169.507 11.7239 172.333 14.5027 172.333 17.9312Z" fill="#FF5C6A"/>
<path d="M186.592 25.7291C186.592 29.1575 183.813 31.9383 180.385 31.9383C176.956 31.9383 174.178 29.1576 174.178 25.7291C174.178 22.3005 176.956 19.5217 180.385 19.5217C183.813 19.5217 186.592 22.3006 186.592 25.7291Z" fill="#FF2E40"/>
<path d="M39.9906 52.5099C39.9906 57.3984 36.0291 61.3599 31.1407 61.3599C26.254 61.3599 22.2907 57.3983 22.2907 52.5099C22.2907 47.6232 26.2541 43.6599 31.1407 43.6599C36.0292 43.6599 39.9906 47.6233 39.9906 52.5099Z" fill="#FF2E40"/>
<path d="M215.066 53.0778C215.066 56.5062 212.241 59.2852 208.757 59.2852C205.271 59.2852 202.446 56.5063 202.446 53.0778C202.446 49.6493 205.272 46.8687 208.757 46.8687C212.241 46.8687 215.066 49.6493 215.066 53.0778Z" fill="#FF5C6A"/>
<path d="M47.7917 37.3521C47.7917 40.836 44.9663 43.6612 41.4826 43.6612C37.997 43.6612 35.1718 40.8358 35.1718 37.3521C35.1718 33.8665 37.9972 31.0413 41.4826 31.0413C44.9665 31.0413 47.7917 33.8667 47.7917 37.3521Z" fill="#FF5C6A"/>
<path d="M18.5987 152.118C18.5987 155.546 15.7733 158.325 12.2878 158.325C8.80393 158.325 5.97876 155.546 5.97876 152.118C5.97876 148.689 8.80415 145.911 12.2878 145.911C15.7735 145.911 18.5987 148.689 18.5987 152.118Z" fill="#FF5C6A"/>
<path d="M14.0316 136.855C14.0316 140.34 11.2528 143.166 7.82429 143.166C4.39579 143.166 1.61694 140.34 1.61694 136.855C1.61694 133.369 4.39579 130.544 7.82429 130.544C11.2528 130.544 14.0316 133.369 14.0316 136.855Z" fill="#FF5C6A"/>
<path d="M25.4973 67.6721C25.4973 71.156 22.6719 73.9811 19.1883 73.9811C15.7026 73.9811 12.8774 71.1557 12.8774 67.6721C12.8774 64.1864 15.7028 61.3612 19.1883 61.3612C22.6721 61.3612 25.4973 64.1866 25.4973 67.6721Z" fill="#FF5C6A"/>
<path d="M59.5411 205.886C59.5411 210.081 56.1414 213.48 51.949 213.48C47.7548 213.48 44.3551 210.081 44.3551 205.886C44.3551 201.694 47.7549 198.294 51.949 198.294C56.1415 198.294 59.5411 201.694 59.5411 205.886Z" fill="#FF5C6A"/>
<path d="M152.347 44.2279C152.347 55.3343 143.343 64.3382 132.235 64.3382C121.128 64.3382 112.124 55.3343 112.124 44.2279C112.124 33.1196 121.128 24.1157 132.235 24.1157C143.343 24.1157 152.347 33.1196 152.347 44.2279Z" fill="#FF5C6A"/>
<path d="M188.672 93.7593C188.672 104.173 180.23 112.614 169.818 112.614C159.404 112.614 150.963 104.173 150.963 93.7593C150.963 83.3473 159.404 74.9069 169.818 74.9069C180.23 74.9069 188.672 83.3473 188.672 93.7593Z" fill="#FF5C6A"/>
<path d="M149.14 113.511C149.14 125.314 139.573 134.88 127.772 134.88C115.971 134.88 106.404 125.314 106.404 113.511C106.404 101.711 115.972 92.1432 127.772 92.1432C139.573 92.1432 149.14 101.711 149.14 113.511Z" fill="#FF5C6A"/>
<path d="M199.24 150.4C199.24 158.971 192.292 165.921 183.721 165.921C175.15 165.921 168.202 158.971 168.202 150.4C168.202 141.829 175.15 134.881 183.721 134.881C192.292 134.881 199.24 141.829 199.24 150.4Z" fill="#FF2E40"/>
<path d="M68.7256 154.426C68.7256 163.819 61.1101 171.434 51.7178 171.434C42.3237 171.434 34.71 163.819 34.71 154.426C34.71 145.034 42.3237 137.419 51.7178 137.419C61.1101 137.419 68.7256 145.034 68.7256 154.426Z" fill="#FF5C6A"/>
<path d="M122.027 185.566C122.027 197.056 112.667 206.371 101.12 206.371C89.5734 206.371 80.2131 197.056 80.2131 185.566C80.2131 174.077 89.5734 164.763 101.12 164.763C112.667 164.763 122.027 174.077 122.027 185.566Z" fill="#FF5C6A"/>
</svg>
