<svg width="634" height="587" viewBox="0 0 634 587" fill="none" xmlns="http://www.w3.org/2000/svg">
<g filter="url(#filter0_d_99_585)">
<path d="M464.136 389.661L461.174 388.612C460.688 388.44 460.274 388.164 459.942 387.814C459.155 386.985 458.848 385.752 459.26 384.6C459.839 382.962 461.639 382.106 463.274 382.687L466.238 383.737L529.062 206.535L526.098 205.484C525.612 205.312 525.198 205.036 524.866 204.686C524.079 203.857 523.772 202.624 524.182 201.47C524.761 199.832 526.561 198.976 528.196 199.557L531.162 200.605L545.107 161.275L495.871 143.827C489.475 157.159 473.872 163.819 459.627 158.774C445.386 153.721 437.457 138.725 440.891 124.345L391.616 106.881L377.67 146.212L380.634 147.262C382.259 147.845 383.124 149.637 382.546 151.276C381.967 152.914 380.167 153.771 378.532 153.19L375.568 152.139L312.739 329.336L315.705 330.389C317.336 330.97 318.196 332.765 317.617 334.403C317.038 336.041 315.238 336.897 313.602 336.316L310.639 335.266L296.709 374.556L345.985 392.02C348.868 385.989 353.688 381.164 359.809 378.244C366.881 374.871 374.844 374.456 382.229 377.073C389.613 379.687 395.537 385.019 398.907 392.101C401.823 398.218 402.526 405 400.967 411.5L450.199 428.948L464.136 389.661ZM401.236 161.243L389.884 157.222C389.402 157.05 388.986 156.772 388.656 156.424C387.869 155.595 387.562 154.362 387.972 153.208C388.549 151.572 390.349 150.716 391.986 151.295L403.338 155.316C404.966 155.901 405.83 157.688 405.251 159.33C404.671 160.968 402.876 161.82 401.236 161.243L401.236 161.243ZM423.938 169.288L412.588 165.265C412.106 165.093 411.69 164.815 411.36 164.467C410.573 163.637 410.266 162.405 410.676 161.251C411.255 159.613 413.055 158.756 414.69 159.337L426.04 163.361C427.669 163.944 428.534 165.735 427.953 167.375C427.373 169.013 425.575 169.867 423.938 169.288L423.938 169.288ZM468.403 256.708L422.827 283.178L446.845 249.071L468.403 256.708ZM415.875 282.126L418.798 239.131L440.689 246.889L415.875 282.126ZM442.914 224.063L464.313 231.647L447.611 240.671L442.914 224.063ZM471.955 251.284L453.377 244.702L469.599 235.938L471.955 251.284ZM505.498 191.514L516.85 195.535C518.477 196.116 519.34 197.91 518.762 199.55C518.185 201.185 516.385 202.042 514.748 201.463L503.396 197.442C502.914 197.27 502.497 196.992 502.167 196.644C501.381 195.814 501.074 194.581 501.483 193.427C502.065 191.792 503.861 190.935 505.498 191.514L505.498 191.514ZM482.798 183.468L494.15 187.489C495.779 188.072 496.642 189.866 496.062 191.503C495.485 193.139 493.685 193.996 492.048 193.417L480.693 189.397C480.212 189.225 479.795 188.947 479.465 188.599C478.678 187.77 478.372 186.537 478.781 185.383C479.363 183.743 481.158 182.891 482.798 183.468L482.798 183.468ZM436.414 224.193L440.971 240.305L422.727 233.841L436.414 224.193ZM460.094 175.425L471.446 179.446C473.075 180.029 473.938 181.823 473.358 183.461C472.779 185.098 470.981 185.953 469.344 185.374L457.992 181.353C457.51 181.181 457.093 180.903 456.763 180.555C455.976 179.725 455.67 178.492 456.079 177.338C456.659 175.701 458.456 174.846 460.094 175.425L460.094 175.425ZM431.451 220.001L417.34 229.946L410.05 212.419L431.451 220.001ZM434.061 172.51C433.274 171.681 432.968 170.448 433.377 169.294C433.956 167.656 435.754 166.802 437.392 167.381L448.744 171.402C450.371 171.983 451.237 173.781 450.656 175.416C450.077 177.054 448.279 177.908 446.641 177.329L435.289 173.308C434.808 173.136 434.391 172.858 434.061 172.51L434.061 172.51ZM403.238 212.415L410.319 229.446L391.732 222.859L403.238 212.415ZM391.079 229.307L412.643 236.947L409.81 278.596L391.079 229.307ZM336.305 344.364L324.953 340.343C324.471 340.171 324.054 339.893 323.724 339.545C322.938 338.716 322.631 337.483 323.04 336.329C323.618 334.693 325.418 333.837 327.055 334.416L338.407 338.437C340.039 339.018 340.899 340.814 340.32 342.451C339.742 344.087 337.944 344.946 336.305 344.364L336.305 344.364ZM359.009 352.411L347.657 348.39C347.175 348.218 346.758 347.94 346.428 347.592C345.641 346.763 345.335 345.53 345.744 344.376C346.322 342.74 348.122 341.884 349.759 342.463L361.111 346.484C362.742 347.065 363.601 348.858 363.023 350.498C362.444 352.136 360.648 352.992 359.009 352.411L359.009 352.411ZM381.709 360.458L370.357 356.436C369.875 356.264 369.458 355.986 369.128 355.638C368.342 354.809 368.035 353.576 368.444 352.422C369.022 350.786 370.822 349.93 372.459 350.509L383.811 354.53C385.436 355.109 386.303 356.907 385.724 358.544C385.144 360.182 383.348 361.039 381.709 360.457L381.709 360.458ZM404.411 368.502L393.061 364.479C392.579 364.307 392.162 364.029 391.832 363.681C391.046 362.852 390.739 361.619 391.148 360.465C391.728 358.827 393.528 357.97 395.163 358.552L406.513 362.575C408.14 363.156 409.007 364.953 408.425 366.589C407.846 368.227 406.048 369.085 404.411 368.502L404.411 368.502ZM356.765 303.526C356.284 303.354 355.867 303.076 355.537 302.728C354.75 301.899 354.444 300.666 354.853 299.512C355.432 297.874 357.23 297.02 358.868 297.599L450.407 330.037C452.032 330.616 452.898 332.413 452.319 334.051C451.74 335.689 449.942 336.543 448.304 335.964L356.765 303.526ZM427.116 376.55L415.764 372.529C415.282 372.357 414.865 372.079 414.535 371.731C413.749 370.901 413.442 369.668 413.851 368.514C414.429 366.879 416.229 366.022 417.866 366.601L429.218 370.622C430.847 371.205 431.71 372.999 431.131 374.637C430.551 376.274 428.756 377.127 427.116 376.55L427.116 376.55ZM449.818 384.595L438.466 380.573C437.984 380.401 437.567 380.124 437.237 379.776C436.45 378.946 436.144 377.713 436.553 376.559C437.13 374.924 438.93 374.067 440.568 374.646L451.92 378.667C453.545 379.246 454.412 381.044 453.832 382.681C453.253 384.319 451.455 385.174 449.818 384.595L449.818 384.595Z" fill="#E0F3FF"/>
</g>
<g filter="url(#filter1_d_99_585)">
<path d="M454.308 384.455L449.324 386.996C448.506 387.413 447.641 387.611 446.782 387.611C444.746 387.611 442.777 386.496 441.792 384.553C440.386 381.798 441.485 378.423 444.24 377.022L449.23 374.481L297.23 76.1873L292.24 78.7289C291.423 79.1456 290.558 79.3435 289.699 79.3435C287.662 79.3435 285.693 78.2289 284.704 76.2861C283.298 73.5309 284.397 70.1559 287.152 68.7549L292.141 66.208L258.407 0L175.516 42.2347C184.907 66.8333 174.391 95.152 150.412 107.375C126.428 119.583 97.3333 111.453 82.9587 89.396L0 131.661L33.7347 197.869L38.7243 195.328C41.4691 193.942 44.844 195.02 46.2555 197.776C47.6617 200.531 46.5628 203.906 43.8076 205.307L38.818 207.848L190.805 506.142L195.799 503.6C198.549 502.204 201.925 503.293 203.331 506.048C204.737 508.803 203.638 512.178 200.883 513.579L195.893 516.121L229.596 582.261L312.555 539.995C308.294 528.881 307.966 516.741 311.695 505.255C316.003 491.985 325.226 481.187 337.659 474.854C350.086 468.516 364.238 467.396 377.519 471.719C388.998 475.448 398.623 482.849 405.112 492.828L487.998 450.599L454.308 384.455ZM82.0413 185.841L62.932 195.581C62.1195 195.992 61.2497 196.19 60.3956 196.19C58.3592 196.19 56.3904 195.076 55.4008 193.133C53.9945 190.383 55.0935 187.008 57.8487 185.602L76.958 175.862C79.708 174.477 83.0777 175.55 84.4892 178.31C85.8955 181.065 84.7965 184.43 82.0413 185.841V185.841ZM120.26 166.368L101.151 176.102C100.338 176.514 99.4684 176.712 98.6143 176.712C96.5779 176.712 94.6091 175.597 93.6195 173.654C92.2132 170.899 93.3122 167.524 96.0673 166.123L115.177 156.389C117.927 154.998 121.302 156.076 122.708 158.837C124.114 161.592 123.015 164.962 120.26 166.368V166.368ZM287.727 216.035L266.076 307.352L251.436 234.529L287.727 216.035ZM256.196 315.045L204.217 258.587L241.072 239.811L256.196 315.045ZM214.3 208.967L250.327 190.612L241.519 223.248L214.3 208.967ZM285.071 204.8L253.795 220.737L262.352 189.04L285.071 204.8ZM248.94 88.2266L268.049 78.487C270.794 77.0963 274.169 78.1797 275.581 80.9348C276.987 83.6848 275.888 87.0599 273.133 88.466L254.023 98.2056C253.211 98.6171 252.341 98.815 251.487 98.815C249.451 98.815 247.482 97.7004 246.492 95.7577C245.091 93.0025 246.185 89.6326 248.94 88.2265V88.2266ZM210.721 107.696L229.831 97.9563C232.581 96.5656 235.956 97.649 237.362 100.404C238.768 103.154 237.669 106.529 234.914 107.935L215.805 117.68C214.992 118.092 214.122 118.29 213.268 118.29C211.232 118.29 209.263 117.175 208.273 115.232C206.867 112.472 207.966 109.107 210.721 107.696V107.696ZM206.503 217.524L232.909 231.379L202.196 247.029L206.503 217.524ZM172.503 127.175L191.612 117.435C194.362 116.044 197.737 117.128 199.143 119.883C200.549 122.638 199.45 126.008 196.695 127.414L177.586 137.154C176.773 137.565 175.904 137.763 175.049 137.763C173.013 137.763 171.044 136.648 170.055 134.706C168.648 131.95 169.747 128.581 172.503 127.174V127.175ZM195.003 218.8L190.56 249.216L158.976 237.159L195.003 218.8ZM136.831 157.237C134.794 157.237 132.825 156.123 131.836 154.18C130.429 151.425 131.528 148.055 134.284 146.649L153.393 136.909C156.138 135.518 159.523 136.602 160.924 139.357C162.33 142.112 161.231 145.482 158.476 146.888L139.367 156.628C138.554 157.039 137.685 157.237 136.831 157.237V157.237ZM150.623 245.956L181.311 257.675L150.019 273.617L150.623 245.956ZM157.55 282.363L193.852 263.863L244.202 318.556L157.55 282.363ZM239.107 494.109L219.998 503.849C219.185 504.26 218.315 504.458 217.461 504.458C215.425 504.458 213.456 503.344 212.466 501.401C211.06 498.651 212.159 495.276 214.914 493.87L234.024 484.13C236.774 482.734 240.149 483.823 241.555 486.578C242.961 489.328 241.867 492.703 239.107 494.109V494.109ZM277.331 474.636L258.222 484.375C257.409 484.787 256.539 484.985 255.685 484.985C253.649 484.985 251.68 483.87 250.69 481.928C249.284 479.178 250.383 475.802 253.138 474.396L272.248 464.657C274.998 463.261 278.367 464.349 279.779 467.105C281.185 469.86 280.091 473.23 277.331 474.636V474.636ZM315.55 455.167L296.44 464.906C295.628 465.318 294.758 465.516 293.904 465.516C291.867 465.516 289.899 464.401 288.909 462.458C287.503 459.708 288.602 456.333 291.357 454.927L310.466 445.187C313.206 443.797 316.591 444.88 317.997 447.635C319.404 450.39 318.31 453.76 315.55 455.166V455.167ZM353.768 435.693L334.659 445.428C333.846 445.839 332.977 446.037 332.123 446.037C330.086 446.037 328.117 444.922 327.128 442.98C325.721 440.224 326.82 436.849 329.576 435.448L348.685 425.714C351.43 424.323 354.815 425.407 356.216 428.162C357.622 430.917 356.529 434.292 353.768 435.693V435.693ZM211.408 417.636C210.596 418.047 209.726 418.245 208.872 418.245C206.835 418.245 204.867 417.131 203.877 415.188C202.471 412.433 203.57 409.063 206.325 407.657L360.432 329.135C363.171 327.745 366.557 328.828 367.963 331.583C369.369 334.338 368.27 337.708 365.515 339.114L211.408 417.636ZM391.995 416.219L372.886 425.959C372.073 426.37 371.203 426.568 370.349 426.568C368.313 426.568 366.344 425.454 365.354 423.511C363.948 420.761 365.047 417.386 367.802 415.98L386.912 406.24C389.662 404.849 393.037 405.933 394.443 408.688C395.849 411.443 394.75 414.808 391.995 416.219V416.219ZM430.214 396.746L411.104 406.486C410.292 406.897 409.422 407.095 408.568 407.095C406.531 407.095 404.563 405.98 403.573 404.038C402.167 401.288 403.266 397.913 406.021 396.506L425.13 386.767C427.87 385.376 431.255 386.459 432.661 389.215C434.068 391.97 432.969 395.34 430.214 396.746V396.746Z" fill="#E0F3FF"/>
</g>
<defs>
<filter id="filter0_d_99_585" x="296.709" y="106.881" width="248.398" height="326.066" filterUnits="userSpaceOnUse" color-interpolation-filters="sRGB">
<feFlood flood-opacity="0" result="BackgroundImageFix"/>
<feColorMatrix in="SourceAlpha" type="matrix" values="0 0 0 0 0 0 0 0 0 0 0 0 0 0 0 0 0 0 127 0" result="hardAlpha"/>
<feOffset dy="4"/>
<feComposite in2="hardAlpha" operator="out"/>
<feColorMatrix type="matrix" values="0 0 0 0 0 0 0 0 0 0.054902 0 0 0 0 0.0901961 0 0 0 0.11 0"/>
<feBlend mode="normal" in2="BackgroundImageFix" result="effect1_dropShadow_99_585"/>
<feBlend mode="normal" in="SourceGraphic" in2="effect1_dropShadow_99_585" result="shape"/>
</filter>
<filter id="filter1_d_99_585" x="0" y="0" width="487.998" height="586.261" filterUnits="userSpaceOnUse" color-interpolation-filters="sRGB">
<feFlood flood-opacity="0" result="BackgroundImageFix"/>
<feColorMatrix in="SourceAlpha" type="matrix" values="0 0 0 0 0 0 0 0 0 0 0 0 0 0 0 0 0 0 127 0" result="hardAlpha"/>
<feOffset dy="4"/>
<feComposite in2="hardAlpha" operator="out"/>
<feColorMatrix type="matrix" values="0 0 0 0 0 0 0 0 0 0.054902 0 0 0 0 0.0901961 0 0 0 0.11 0"/>
<feBlend mode="normal" in2="BackgroundImageFix" result="effect1_dropShadow_99_585"/>
<feBlend mode="normal" in="SourceGraphic" in2="effect1_dropShadow_99_585" result="shape"/>
</filter>
</defs>
</svg>
