<svg width="236" height="236" viewBox="0 0 236 236" fill="none" xmlns="http://www.w3.org/2000/svg">
<path d="M108.56 47.7258L104.364 35.4014L48.7734 54.0201L52.9694 66.3446L108.56 47.7258ZM65.8178 87.5822L61.3602 92.0398L56.9027 87.5822C49.8222 80.5018 38.5476 80.5018 31.4671 87.5822C24.3867 94.6627 24.3867 105.937 31.4671 113.018L61.3605 142.911L91.2538 113.018C98.3343 105.937 98.3343 94.6627 91.2538 87.5822C84.4365 80.5036 72.8987 80.5036 65.8182 87.5822H65.8178ZM188.8 54.0178L133.209 35.3991L129.013 47.7235L184.604 66.3422L188.8 54.0178ZM118 157.333C110.658 157.333 104.889 163.102 104.889 170.444C104.889 177.787 110.658 183.556 118 183.556C125.342 183.556 131.111 177.787 131.111 170.444C131.111 163.102 125.342 157.333 118 157.333ZM118 0C52.7067 0 0 52.7067 0 118C0 183.293 52.7067 236 118 236C183.293 236 236 183.293 236 118C236 52.7067 183.293 0 118 0ZM118 222.889C60.0489 222.889 13.1111 175.951 13.1111 118C13.1111 60.0489 60.0489 13.1111 118 13.1111C175.951 13.1111 222.889 60.0489 222.889 118C222.889 175.951 175.951 222.889 118 222.889ZM204.271 87.5822C197.191 80.5018 185.916 80.5018 178.836 87.5822L174.378 92.0398L169.92 87.5822C162.84 80.5018 151.565 80.5018 144.485 87.5822C137.404 94.6627 137.404 105.937 144.485 113.018L174.378 142.911L204.272 113.018C211.352 105.937 211.352 94.4009 204.272 87.5822H204.271Z" fill="#FF5C6A"/>
<path d="M66.0004 87.8401L61.5428 92.2977L57.0853 87.8401C50.0048 80.7597 38.7302 80.7597 31.6497 87.8401C24.5692 94.9206 24.5692 106.195 31.6497 113.276L61.543 143.169L91.4364 113.276C98.5169 106.195 98.5169 94.9206 91.4364 87.8401C84.6191 80.7615 73.0813 80.7615 66.0008 87.8401H66.0004ZM204.454 87.8401C197.373 80.7597 186.099 80.7597 179.018 87.8401L174.561 92.2977L170.103 87.8401C163.023 80.7597 151.748 80.7597 144.667 87.8401C137.587 94.9206 137.587 106.195 144.667 113.276L174.561 143.169L204.454 113.276C211.535 106.195 211.535 94.6589 204.454 87.8401H204.454Z" fill="#FF2E40"/>
</svg>
