<svg width="534" height="513" viewBox="0 0 534 513" fill="none" xmlns="http://www.w3.org/2000/svg">
<g filter="url(#filter0_d_99_449)">
<rect y="186.417" width="354.935" height="354.935" rx="177.467" transform="rotate(-31.6826 0 186.417)" fill="#FFF0F1"/>
<path fill-rule="evenodd" clip-rule="evenodd" d="M206.928 213.109C206.948 213.034 213.755 186.842 248.717 187.002C249.987 187.009 251.006 188.042 250.99 189.31C250.975 190.577 249.933 191.599 248.661 191.591C217.299 191.446 211.388 214.225 211.371 214.291C211.037 215.516 209.77 216.246 208.544 215.919C207.317 215.594 206.592 214.336 206.928 213.111L206.928 213.109ZM190.687 228.051C198.334 241.088 212.242 261.978 222.263 269.527C223.273 270.289 223.466 271.727 222.696 272.738C221.925 273.75 220.481 273.952 219.472 273.19C211.776 267.394 202.643 255.035 195.959 245.048C190.841 249.424 178.202 263.193 198.507 279.284L198.512 279.277C198.594 279.342 198.67 279.411 198.739 279.484C200.276 280.794 214.297 292.172 236.7 291.323L298.856 252.961C299.231 250.773 299.442 248.556 299.503 246.319C299.985 228.756 291.48 209.633 281.842 194.702C272.326 179.956 262.041 169.464 258.366 168.771C258.34 168.766 258.365 168.764 258.349 168.764L258.345 168.771C258.112 168.766 257.888 168.727 257.678 168.659C250.398 166.875 240.136 168.597 229.716 172.8C220.757 176.414 211.758 181.842 204.465 188.453C197.279 194.966 191.768 202.606 189.65 210.737C188.198 216.314 188.353 222.155 190.687 228.051Z" fill="#FF2E40"/>
<path fill-rule="evenodd" clip-rule="evenodd" d="M264.166 311.833L304.894 286.696C307.487 285.095 309.195 282.585 309.857 279.829C310.519 277.073 310.136 274.074 308.547 271.5L299.925 257.529L240.323 294.315L248.945 308.285C250.535 310.86 253.042 312.547 255.803 313.19C258.564 313.833 261.573 313.433 264.166 311.833Z" fill="#FF2E40"/>
<rect x="4.56501" y="187.497" width="348.301" height="348.301" rx="174.15" transform="rotate(-31.6826 4.56501 187.497)" stroke="#FFDEE1" stroke-width="6.6343"/>
</g>
<g filter="url(#filter1_d_99_449)">
<rect x="120.551" y="267.428" width="206.46" height="206.46" rx="103.23" fill="#FFF0F1"/>
<rect x="123.322" y="270.199" width="200.918" height="200.918" rx="100.459" stroke="#FFDEE1" stroke-width="5.54255"/>
</g>
<g filter="url(#filter2_d_99_449)">
<rect x="183.931" y="209.133" width="225.859" height="225.859" rx="112.93" transform="rotate(26.9256 183.931 209.133)" fill="#FFF0F1"/>
<path fill-rule="evenodd" clip-rule="evenodd" d="M238.02 330.383C238.068 330.369 254.551 325.385 266.053 344.429C266.47 345.122 266.246 346.017 265.552 346.429C264.859 346.841 263.959 346.614 263.541 345.92C253.225 328.837 238.892 333.176 238.851 333.188C238.075 333.413 237.258 332.967 237.029 332.192C236.799 331.418 237.242 330.608 238.019 330.384L238.02 330.383ZM224.52 326.514C219.973 334.989 213.236 349.468 212.457 357.414C212.378 358.215 211.661 358.797 210.856 358.713C210.051 358.63 209.463 357.912 209.542 357.111C210.14 351.01 213.826 341.952 217.035 335.012C212.962 333.682 201.293 331.381 199.283 347.743L199.288 347.744C199.281 347.81 199.268 347.874 199.251 347.936C199.049 349.205 197.516 360.593 205.403 372.48L246.844 393.528C248.156 393.006 249.43 392.386 250.665 391.678C260.366 386.118 267.934 375.159 272.85 364.975C277.705 354.918 279.996 345.854 279.154 343.628C279.148 343.612 279.158 343.625 279.152 343.616L279.147 343.617C279.073 343.489 279.019 343.354 278.987 343.217C277.543 338.671 273.206 333.668 267.469 329.401C262.536 325.732 256.605 322.643 250.596 320.873C244.677 319.128 238.7 318.667 233.581 320.212C230.071 321.272 226.949 323.292 224.52 326.514Z" fill="#FF2E40"/>
<path fill-rule="evenodd" clip-rule="evenodd" d="M203.366 394.198L230.52 407.989C232.249 408.867 234.179 408.963 235.895 408.409C237.612 407.855 239.113 406.653 239.985 404.937L244.716 395.622L204.979 375.44L200.248 384.754C199.376 386.471 199.291 388.392 199.857 390.105C200.423 391.818 201.637 393.32 203.366 394.198Z" fill="#FF2E40"/>
<rect x="184.857" y="211.971" width="221.637" height="221.637" rx="110.819" transform="rotate(26.9256 184.857 211.971)" stroke="#FFDEE1" stroke-width="4.22166"/>
</g>
<g filter="url(#filter3_d_99_449)">
<rect x="224.473" y="153.806" width="296.527" height="296.527" rx="148.263" fill="#FFF0F1"/>
<path fill-rule="evenodd" clip-rule="evenodd" d="M359.873 263.579C359.92 263.535 376.253 247.901 401.038 263.355C401.938 263.918 402.209 265.099 401.641 265.994C401.075 266.888 399.885 267.157 398.984 266.593C376.752 252.729 362.555 266.33 362.513 266.369C361.738 267.093 360.517 267.057 359.789 266.286C359.059 265.516 359.096 264.304 359.872 263.581L359.873 263.579ZM341.771 267.076C341.487 279.7 342.208 300.653 346.02 310.418C346.404 311.402 345.91 312.51 344.919 312.891C343.927 313.271 342.812 312.781 342.428 311.797C339.5 304.3 338.43 291.506 338.061 281.473C332.502 282.338 317.475 286.582 324.85 306.93L324.857 306.928C324.887 307.01 324.91 307.092 324.927 307.174C325.445 308.78 330.421 323.022 346.72 332.248H407.742C408.969 330.857 410.091 329.373 411.116 327.81C419.165 315.535 421.509 298.208 421.209 283.365C420.914 268.705 418.206 256.734 415.897 254.628C415.881 254.613 415.9 254.623 415.888 254.616L415.882 254.619C415.719 254.513 415.576 254.387 415.457 254.247C411.064 249.784 403.013 246.506 393.761 244.922C385.806 243.56 377.026 243.47 368.941 244.97C360.974 246.447 353.704 249.46 348.631 254.312C345.151 257.64 342.698 261.86 341.771 267.076Z" fill="#FF2E40"/>
<path fill-rule="evenodd" clip-rule="evenodd" d="M357.247 358.881H397.232C399.778 358.881 402.093 357.845 403.774 356.176C405.453 354.507 406.497 352.208 406.497 349.68V335.965H347.983V349.68C347.983 352.208 349.026 354.508 350.706 356.176C352.387 357.844 354.702 358.881 357.247 358.881Z" fill="#FF2E40"/>
<rect x="227.245" y="156.577" width="290.984" height="290.984" rx="145.492" stroke="#FFDEE1" stroke-width="5.54255"/>
</g>
<defs>
<filter id="filter0_d_99_449" x="-14.9272" y="-8.29287" width="518.31" height="518.31" filterUnits="userSpaceOnUse" color-interpolation-filters="sRGB">
<feFlood flood-opacity="0" result="BackgroundImageFix"/>
<feColorMatrix in="SourceAlpha" type="matrix" values="0 0 0 0 0 0 0 0 0 0 0 0 0 0 0 0 0 0 127 0" result="hardAlpha"/>
<feOffset dy="6.6343"/>
<feGaussianBlur stdDeviation="7.46358"/>
<feComposite in2="hardAlpha" operator="out"/>
<feColorMatrix type="matrix" values="0 0 0 0 0 0 0 0 0 0 0 0 0 0 0 0 0 0 0.1 0"/>
<feBlend mode="normal" in2="BackgroundImageFix" result="effect1_dropShadow_99_449"/>
<feBlend mode="normal" in="SourceGraphic" in2="effect1_dropShadow_99_449" result="shape"/>
</filter>
<filter id="filter1_d_99_449" x="108.08" y="260.5" width="231.402" height="231.402" filterUnits="userSpaceOnUse" color-interpolation-filters="sRGB">
<feFlood flood-opacity="0" result="BackgroundImageFix"/>
<feColorMatrix in="SourceAlpha" type="matrix" values="0 0 0 0 0 0 0 0 0 0 0 0 0 0 0 0 0 0 127 0" result="hardAlpha"/>
<feOffset dy="5.54255"/>
<feGaussianBlur stdDeviation="6.23537"/>
<feComposite in2="hardAlpha" operator="out"/>
<feColorMatrix type="matrix" values="0 0 0 0 0 0 0 0 0 0 0 0 0 0 0 0 0 0 0.1 0"/>
<feBlend mode="normal" in2="BackgroundImageFix" result="effect1_dropShadow_99_449"/>
<feBlend mode="normal" in="SourceGraphic" in2="effect1_dropShadow_99_449" result="shape"/>
</filter>
<filter id="filter2_d_99_449" x="72.1557" y="203.856" width="322.649" height="322.649" filterUnits="userSpaceOnUse" color-interpolation-filters="sRGB">
<feFlood flood-opacity="0" result="BackgroundImageFix"/>
<feColorMatrix in="SourceAlpha" type="matrix" values="0 0 0 0 0 0 0 0 0 0 0 0 0 0 0 0 0 0 127 0" result="hardAlpha"/>
<feOffset dy="4.22166"/>
<feGaussianBlur stdDeviation="4.74937"/>
<feComposite in2="hardAlpha" operator="out"/>
<feColorMatrix type="matrix" values="0 0 0 0 0 0 0 0 0 0 0 0 0 0 0 0 0 0 0.1 0"/>
<feBlend mode="normal" in2="BackgroundImageFix" result="effect1_dropShadow_99_449"/>
<feBlend mode="normal" in="SourceGraphic" in2="effect1_dropShadow_99_449" result="shape"/>
</filter>
<filter id="filter3_d_99_449" x="212.003" y="146.878" width="321.468" height="321.468" filterUnits="userSpaceOnUse" color-interpolation-filters="sRGB">
<feFlood flood-opacity="0" result="BackgroundImageFix"/>
<feColorMatrix in="SourceAlpha" type="matrix" values="0 0 0 0 0 0 0 0 0 0 0 0 0 0 0 0 0 0 127 0" result="hardAlpha"/>
<feOffset dy="5.54255"/>
<feGaussianBlur stdDeviation="6.23537"/>
<feComposite in2="hardAlpha" operator="out"/>
<feColorMatrix type="matrix" values="0 0 0 0 0 0 0 0 0 0 0 0 0 0 0 0 0 0 0.1 0"/>
<feBlend mode="normal" in2="BackgroundImageFix" result="effect1_dropShadow_99_449"/>
<feBlend mode="normal" in="SourceGraphic" in2="effect1_dropShadow_99_449" result="shape"/>
</filter>
</defs>
</svg>
