<svg width="433" height="222" viewBox="0 0 433 222" fill="none" xmlns="http://www.w3.org/2000/svg">
<path d="M216.505 0C211.947 0 208.305 3.6457 208.305 8.20027V30.9833C208.305 35.5412 211.95 39.1836 216.505 39.1836C221.063 39.1836 224.705 35.5379 224.705 30.9833V8.20027C224.705 3.64553 221.063 0 216.505 0Z" fill="#FF5C6A"/>
<path d="M171.85 53.3122C173.671 55.1335 175.496 55.5912 177.775 55.5912C180.054 55.5912 181.875 54.679 183.699 53.3122C186.89 50.1211 186.89 44.6539 183.699 41.4659L167.295 25.0621C164.104 21.8709 158.637 21.8709 155.449 25.0621C152.258 28.2533 152.258 33.7204 155.449 36.9084L171.85 53.3122Z" fill="#FF5C6A"/>
<path d="M255.236 55.5905C257.515 55.5905 259.336 54.6783 261.161 53.3115L277.564 36.9077C280.756 33.7165 280.756 28.2493 277.564 25.0613C274.373 21.8702 268.906 21.8702 265.718 25.0613L249.314 41.4651C246.123 44.6563 246.123 50.1235 249.314 53.3115C250.678 54.6783 252.957 55.5905 255.236 55.5905H255.236Z" fill="#FF5C6A"/>
<path d="M175.495 78.3736L155.446 82.0193C155.446 82.0193 155.9 84.2983 156.358 86.5772L159.091 103.436L179.595 99.7902C185.52 98.878 189.166 92.9566 188.254 87.0317C186.887 81.1071 181.417 77.0071 175.495 78.3733L175.495 78.3736Z" fill="#FF2E40"/>
<path d="M144.966 193.656C144.054 189.098 144.966 184.543 146.787 180.443L147.7 178.622L145.878 177.71C139.954 174.519 135.854 169.051 134.487 162.673C133.575 158.573 134.032 154.473 135.854 150.369L136.766 148.548L134.945 147.636C132.666 146.724 130.844 145.815 129.478 144.902C125.832 142.169 123.099 138.523 121.732 133.966L120.365 129.866L118.086 133.057C107.607 147.64 92.1118 154.019 81.6324 154.473C78.8989 154.473 76.62 152.652 75.7078 150.373V149.918C75.7078 147.185 77.5291 144.451 80.7203 143.993C81.6325 143.993 108.516 141.26 116.262 111.64L116.716 108.906L105.78 109.361C103.046 109.361 100.313 107.082 100.313 104.349C100.313 101.615 102.592 98.8816 105.325 98.8816L122.184 98.4271C124.917 98.4271 127.196 100.248 127.651 102.985L131.296 128.959C131.751 131.693 133.575 134.426 135.397 135.793C137.676 137.614 140.864 138.072 143.597 137.614C149.064 136.702 153.167 131.235 152.255 125.311L145.876 87.9447C144.055 77.9201 134.94 70.6288 124.914 71.086L93.0187 72.9073C79.8062 73.8195 67.0444 80.1986 58.8442 90.6781L31.0488 126.22C30.5975 127.586 29.2308 128.495 27.864 128.495L5.08097 132.596C1.43528 133.05 -0.385982 136.696 0.0685394 139.887L11.0052 198.666C11.4597 202.311 15.1054 204.132 18.2965 203.678L42.4465 199.12C44.2678 198.666 46.0922 199.575 47.459 200.941L52.9259 206.866C62.4964 217.345 77.076 222.358 91.2006 219.624C92.5674 219.17 93.9341 219.17 95.3008 218.712C109.884 215.979 129.475 211.421 147.7 204.588L149.979 203.675L148.612 201.396C147.246 199.581 145.879 196.39 144.967 193.657L144.966 193.656Z" fill="#FF2E40"/>
<path d="M187.343 141.711L153.623 148.09C147.698 149.002 144.052 154.923 144.964 160.848C145.877 166.773 151.798 170.419 157.723 169.507L191.443 163.127C197.367 162.215 201.013 156.294 200.101 150.369C199.189 144.444 193.267 140.798 187.343 141.711Z" fill="#FF2E40"/>
<path d="M160.914 113.915L162.736 123.94C163.19 126.673 163.19 129.864 162.281 132.598L161.369 135.789L190.531 130.322C196.456 129.41 200.102 123.489 199.19 117.564C198.277 111.639 192.356 107.993 186.431 108.905L160.914 113.915Z" fill="#FF2E40"/>
<path d="M189.165 174.518L164.561 179.076C158.637 179.988 154.991 185.91 155.903 191.835C156.815 197.759 162.737 201.405 168.661 200.493L193.266 195.935C199.19 195.023 202.836 189.101 201.924 183.176C200.557 177.252 195.09 173.152 189.165 174.518Z" fill="#FF2E40"/>
<path d="M253.413 99.334L273.917 102.98L276.651 86.1211C277.105 83.8421 277.563 81.5631 277.563 81.5631L257.513 78.3751C251.589 77.4629 246.122 81.1086 244.755 87.0335C243.846 92.9549 247.488 98.425 253.413 99.3339L253.413 99.334Z" fill="#FF2E40"/>
<path d="M427.932 133.053L405.149 128.953C403.782 128.498 402.87 128.041 401.957 127.132L374.162 91.59C365.962 81.1106 353.658 74.7313 339.987 73.8192L308.092 71.9979C298.067 71.5434 288.954 78.8315 287.13 88.8566L280.751 126.222C279.839 131.689 283.484 137.159 289.409 138.526C292.143 138.981 295.334 138.526 297.61 136.705C299.888 135.338 301.255 132.605 301.71 129.871L305.355 103.897C305.81 101.163 308.089 99.339 310.822 99.339L327.681 99.7935C330.414 99.7935 333.148 102.527 332.693 105.26C332.693 107.994 329.96 110.727 327.226 110.273L316.29 109.818L316.744 112.552C324.036 141.714 350.919 144.447 352.286 144.905C355.019 145.36 357.298 147.639 357.298 150.83V151.284C356.844 154.018 354.107 155.842 351.374 155.385C340.894 154.472 325.399 148.551 314.92 133.969L312.641 130.777L311.274 134.878C309.908 139.436 307.174 143.078 303.529 145.814C302.162 146.727 300.337 147.636 298.062 148.548L296.24 149.46L297.153 151.281C298.974 155.381 299.432 159.482 298.519 163.585C297.153 169.964 293.052 175.431 287.128 178.622L285.31 178.619L286.222 180.44C288.043 184.54 288.955 189.098 288.043 193.652C287.589 196.844 286.222 199.577 284.397 202.311L283.031 204.59L285.31 205.502C303.993 212.335 323.584 216.893 337.709 219.627C339.076 220.081 340.443 220.081 341.809 220.539C355.934 222.818 370.059 218.26 380.084 207.78L385.551 201.856C386.918 200.489 388.742 200.034 390.563 200.034L414.713 204.592C418.359 205.047 421.547 202.771 422.005 199.58L432.941 140.801C433.399 136.698 431.123 133.507 427.932 133.052L427.932 133.053Z" fill="#FF2E40"/>
<path d="M241.566 163.126L275.286 169.506C281.211 170.418 286.677 166.772 288.044 160.847C288.957 154.923 285.311 149.456 279.386 148.089L245.666 141.71C239.742 140.797 234.275 144.443 232.908 150.368C231.996 156.289 235.641 161.759 241.566 163.126Z" fill="#FF2E40"/>
<path d="M242.022 130.319L271.184 135.786L270.272 132.595C269.36 129.861 269.36 126.67 269.818 123.937L271.639 113.912L245.665 108.9C239.74 107.987 234.273 111.633 232.906 117.558C232.455 123.482 236.555 128.953 242.022 130.32L242.022 130.319Z" fill="#FF2E40"/>
<path d="M268.906 179.075L244.302 174.517C238.377 173.605 232.91 177.25 231.543 183.175C230.631 189.1 234.277 194.567 240.202 195.934L264.806 200.492C270.73 201.404 276.197 197.758 277.564 191.833C278.476 185.912 274.376 179.987 268.906 179.075Z" fill="#FF2E40"/>
</svg>
