<svg width="305" height="239" viewBox="0 0 305 239" fill="none" xmlns="http://www.w3.org/2000/svg">
<path d="M305 117.288L290.805 21.7029C276.73 23.7949 263.62 14.0766 261.525 0L42.7416 32.5038C44.8336 46.581 35.1153 59.6864 21.0363 61.7808L24.5301 85.2901H37.8558L35.6809 70.641L36.9149 69.9153C46.0256 64.5705 52.6703 55.6111 55.1357 45.3355L55.4714 43.9431L252.663 14.6497L253.384 15.8861C258.731 24.9992 267.702 31.6414 277.973 34.1068L279.37 34.4425L290.358 108.435L289.121 109.161C284.268 112.005 280.155 115.891 276.961 120.432V147.513L283.289 146.577C281.205 132.488 290.927 119.381 304.997 117.29L305 117.288ZM276.971 113.631C279.553 110.808 282.484 108.307 285.749 106.244L275.584 37.8728C265.244 35.0148 256.216 28.3276 250.479 19.2641L58.9097 47.7205C56.0517 58.0627 49.3645 67.0857 40.2985 72.825L42.1495 85.2901H134.545L151.182 80.2905L158.34 58.0248L171.659 77.2459L195.049 77.1702L188.868 85.2855H240.585C241.765 84.5101 243.29 84.3234 244.618 85.0207C244.751 85.0892 244.829 85.2074 244.944 85.2855H251.204V89.531C251.204 101.395 260.858 111.054 272.727 111.054H276.978L276.973 113.631L276.971 113.631ZM243.153 69.116C242.132 71.078 239.709 71.8416 237.752 70.818C235.787 69.7944 235.024 67.3738 236.05 65.4117C237.073 63.4473 239.496 62.6909 241.451 63.7145C243.418 64.738 244.186 67.1587 243.153 69.116ZM263.187 77.0327C262.166 78.9948 259.743 79.7536 257.786 78.73C255.821 77.7088 255.058 75.2858 256.083 73.3237C257.109 71.3617 259.53 70.6029 261.49 71.6264C263.454 72.6477 264.218 75.0706 263.187 77.0327ZM265.055 114.141C261.024 112.888 257.417 110.669 254.497 107.754C249.838 103.087 246.949 96.646 246.949 89.5329L25.7692 89.5305C25.7692 96.6436 22.8829 103.085 18.221 107.751C16.4717 109.501 14.4719 110.997 12.2829 112.188C11.5548 112.585 10.8031 112.947 10.03 113.273C8.48405 113.923 6.86712 114.432 5.19112 114.774C3.51749 115.122 1.78002 115.304 0 115.304V211.936C8.00204 211.936 15.155 215.586 19.8826 221.316C23.5561 225.77 25.7663 231.476 25.7663 237.705H246.953C246.953 223.479 258.488 211.936 272.721 211.936V115.304C271.833 115.304 270.956 115.257 270.088 115.169C268.36 114.992 266.67 114.647 265.055 114.141L265.055 114.141ZM259.542 201.018L258.204 201.557C248.396 205.505 240.51 213.388 236.565 223.191L236.035 224.522L36.677 224.525L36.1404 223.194C32.1856 213.391 24.2998 205.5 14.5059 201.559L13.1798 201.018V126.214L14.5106 125.682C24.3021 121.737 32.188 113.844 36.1451 104.043L36.6817 102.714L236.034 102.717L236.563 104.045C240.516 113.846 248.404 121.732 258.203 125.685L259.541 126.216L259.542 201.018ZM233.191 106.958H39.5218C35.1699 116.768 27.2298 124.713 17.4262 129.058V198.18C27.2292 202.52 35.1695 210.465 39.5218 220.28H233.185C237.53 210.465 245.477 202.53 255.288 198.18V129.058C245.48 124.711 237.532 116.766 233.187 106.958H233.191ZM41.0347 166.855C39.2429 168.16 36.7371 167.76 35.437 165.971C34.1345 164.181 34.5316 161.671 36.3259 160.375C38.1177 159.078 40.6235 159.47 41.9212 161.267C43.2213 163.049 42.8242 165.557 41.0348 166.855L41.0347 166.855ZM59.6954 177.632C57.9036 178.935 55.3978 178.538 54.0977 176.743C52.7999 174.954 53.1923 172.443 54.9866 171.148C56.7784 169.845 59.2842 170.243 60.582 172.037C61.8821 173.822 61.4803 176.327 59.6955 177.632H59.6954ZM59.6954 156.083C57.9036 157.385 55.3978 156.991 54.0977 155.194C52.7999 153.412 53.1923 150.901 54.9866 149.606C56.7784 148.299 59.2842 148.693 60.582 150.495C61.8821 152.279 61.4803 154.788 59.6955 156.083H59.6954ZM157.06 195.463L136.357 184.582L115.661 195.463L119.613 172.415L102.87 156.097L126.01 152.728L136.359 131.761L146.709 152.728L169.851 156.097L153.103 172.415L157.06 195.463ZM218.623 176.743C217.325 178.533 214.824 178.932 213.032 177.632C211.243 176.327 210.843 173.824 212.143 172.037C213.448 170.25 215.949 169.848 217.739 171.148C219.521 172.443 219.92 174.954 218.623 176.743H218.623ZM218.623 155.203C217.325 156.99 214.824 157.39 213.032 156.092C211.243 154.794 210.843 152.286 212.143 150.501C213.448 148.709 215.949 148.312 217.739 149.612C219.521 150.906 219.92 153.411 218.623 155.203H218.623ZM237.283 165.971C235.979 167.758 233.478 168.16 231.688 166.855C229.896 165.557 229.506 163.049 230.797 161.266C232.102 159.479 234.603 159.078 236.392 160.375C238.184 161.675 238.576 164.181 237.283 165.971V165.971Z" fill="#FF5C6A"/>
<path d="M265.054 114.477C261.024 113.224 257.417 111.004 254.497 108.089C249.838 103.423 246.949 96.9816 246.949 89.8686L25.7692 89.8662C25.7692 96.9793 22.8829 103.421 18.221 108.087C16.4717 109.836 14.4719 111.333 12.2829 112.524C11.5548 112.921 10.8031 113.283 10.03 113.609C8.48405 114.259 6.86712 114.767 5.19112 115.11C3.51749 115.458 1.78002 115.64 0 115.64V212.272C8.00204 212.272 15.155 215.922 19.8826 221.652C23.5561 226.105 25.7663 231.812 25.7663 238.041H246.953C246.953 223.815 258.488 212.272 272.721 212.272V115.64C271.833 115.64 270.956 115.592 270.088 115.505C268.36 115.328 266.67 114.983 265.055 114.477L265.054 114.477ZM259.542 201.354L258.204 201.893C248.396 205.84 240.51 213.724 236.565 223.527L236.035 224.858L36.677 224.86L36.1404 223.529C32.1856 213.726 24.2998 205.836 14.5059 201.895L13.1798 201.354V126.55L14.5106 126.018C24.3021 122.073 32.188 114.18 36.1451 104.379L36.6817 103.05L236.034 103.052L236.563 104.381C240.516 114.181 248.404 122.068 258.203 126.02L259.541 126.552L259.542 201.354ZM233.191 107.294H39.5218C35.1699 117.104 27.2298 125.049 17.4262 129.394V198.515C27.2292 202.856 35.1695 210.801 39.5218 220.616H233.185C237.53 210.801 245.477 202.865 255.288 198.515V129.394C245.48 125.047 237.532 117.102 233.187 107.294H233.191ZM41.0347 167.191C39.2429 168.495 36.7371 168.096 35.437 166.306C34.1345 164.517 34.5316 162.006 36.3259 160.711C38.1177 159.413 40.6235 159.806 41.9212 161.602C43.2213 163.385 42.8242 165.893 41.0347 167.191ZM59.6955 177.968C57.9036 179.27 55.3978 178.873 54.0977 177.079C52.7999 175.29 53.1923 172.779 54.9866 171.484C56.7784 170.181 59.2842 170.578 60.582 172.372C61.8821 174.157 61.4802 176.663 59.6955 177.968ZM59.6955 156.419C57.9036 157.721 55.3978 157.326 54.0977 155.53C52.7999 153.747 53.1923 151.237 54.9866 149.942C56.7784 148.634 59.2842 149.029 60.582 150.83C61.8821 152.615 61.4802 155.123 59.6955 156.419ZM157.06 195.799L136.357 184.918L115.661 195.799L119.613 172.751L102.87 156.433L126.01 153.064L136.359 132.096L146.709 153.064L169.851 156.433L153.103 172.751L157.06 195.799ZM218.623 177.079C217.325 178.868 214.824 179.268 213.032 177.968C211.243 176.663 210.843 174.159 212.143 172.372C213.448 170.585 215.949 170.183 217.739 171.483C219.521 172.779 219.921 175.289 218.623 177.079ZM218.623 155.539C217.325 157.326 214.824 157.725 213.032 156.428C211.243 155.13 210.843 152.622 212.143 150.837C213.448 149.045 215.949 148.648 217.739 149.948C219.521 151.241 219.921 153.747 218.623 155.539ZM237.283 166.306C235.979 168.093 233.478 168.495 231.688 167.19C229.896 165.893 229.506 163.385 230.797 161.602C232.102 159.815 234.603 159.413 236.392 160.711C238.184 162.011 238.577 164.517 237.283 166.306Z" fill="#FF2E40"/>
</svg>
